<svg width="153" height="49" viewBox="0 0 153 49" fill="none" xmlns="http://www.w3.org/2000/svg">
<path d="M43.1975 21.4936C44.5396 21.4936 45.951 21.5412 47.4316 21.6365C48.9123 21.7317 50.4709 21.9179 52.1074 22.195V25.494C51.5272 25.3295 50.8648 25.1736 50.1202 25.0264C49.4794 24.9052 48.7088 24.7883 47.8083 24.6757C46.9078 24.5632 45.8904 24.4896 44.7561 24.4549V41.2616H41.6649V24.4549C40.5306 24.4896 39.5132 24.5632 38.6126 24.6757C37.7121 24.7883 36.9415 24.9052 36.3007 25.0264C35.5561 25.1736 34.8937 25.3295 34.3136 25.494V22.195C35.9328 21.9179 37.4913 21.7317 38.9893 21.6365C40.4873 21.5412 41.89 21.4936 43.1975 21.4936ZM61.1728 29.4468C61.7429 29.4468 62.3096 29.474 62.8729 29.5283C63.443 29.5826 63.9893 29.6708 64.5119 29.793C65.0345 29.9151 65.5232 30.0678 65.9779 30.2511C66.4326 30.4343 66.8262 30.6549 67.1588 30.9128C67.4981 31.1707 67.7628 31.4693 67.9529 31.8087C68.1429 32.1412 68.2379 32.5145 68.2379 32.9285V38.2019C68.2379 38.5684 68.1429 38.9044 67.9529 39.2098C67.7628 39.5152 67.4981 39.79 67.1588 40.0344C66.8262 40.2719 66.4326 40.4789 65.9779 40.6554C65.5232 40.8318 65.0345 40.9778 64.5119 41.0931C63.9893 41.2085 63.443 41.2933 62.8729 41.3476C62.3028 41.4087 61.7361 41.4393 61.1728 41.4393C60.6094 41.4393 60.0427 41.4087 59.4726 41.3476C58.9093 41.2933 58.3664 41.2085 57.8438 41.0931C57.3212 40.9778 56.8325 40.8318 56.3778 40.6554C55.9299 40.4789 55.5362 40.2719 55.1969 40.0344C54.8643 39.79 54.603 39.5186 54.413 39.22C54.223 38.9145 54.128 38.5752 54.128 38.2019V32.9285C54.128 32.5145 54.223 32.1412 54.413 31.8087C54.603 31.4693 54.8643 31.1707 55.1969 30.9128C55.5362 30.6549 55.9299 30.4343 56.3778 30.2511C56.8325 30.0678 57.3212 29.9151 57.8438 29.793C58.3664 29.6708 58.9093 29.5826 59.4726 29.5283C60.0427 29.474 60.6094 29.4468 61.1728 29.4468ZM56.7138 37.5504C56.7138 37.8626 56.8427 38.134 57.1006 38.3648C57.3653 38.5888 57.708 38.7788 58.1288 38.9349C58.5496 39.0842 59.0247 39.1962 59.5541 39.2709C60.0902 39.3455 60.6298 39.3828 61.1728 39.3828C61.7429 39.3828 62.2926 39.3421 62.822 39.2607C63.3581 39.1792 63.8332 39.0639 64.2472 38.9145C64.6612 38.7584 64.9904 38.5684 65.2347 38.3444C65.4858 38.1137 65.6114 37.849 65.6114 37.5504V33.3154C65.6114 33.0235 65.4858 32.7622 65.2347 32.5315C64.9904 32.2939 64.6612 32.0971 64.2472 31.941C63.8332 31.7781 63.3581 31.656 62.822 31.5745C62.2926 31.4863 61.7429 31.4422 61.1728 31.4422C60.6298 31.4422 60.0902 31.4829 59.5541 31.5643C59.0247 31.639 58.5496 31.7544 58.1288 31.9105C57.708 32.0666 57.3653 32.2634 57.1006 32.5009C56.8427 32.7317 56.7138 33.0032 56.7138 33.3154V37.5504ZM73.6538 41.2357H71.068V29.6301H73.6538V41.2357ZM72.3711 25.5987C72.8734 25.5987 73.2704 25.6835 73.5622 25.8532C73.8541 26.0161 74 26.2774 74 26.6371V27.1461C74 27.4718 73.8541 27.706 73.5622 27.8485C73.2704 27.991 72.8734 28.0623 72.3711 28.0623C71.8893 28.0623 71.499 27.991 71.2004 27.8485C70.9085 27.706 70.7626 27.4718 70.7626 27.1461V26.6371C70.7626 26.2774 70.9085 26.0161 71.2004 25.8532C71.499 25.6835 71.8893 25.5987 72.3711 25.5987Z" fill="#D2221E"/>
<path d="M86.3437 21.2598C87.6772 21.2598 88.8634 21.3767 89.9025 21.6105C90.9502 21.8443 91.8334 22.169 92.5521 22.5846C93.2794 23.0003 93.8336 23.5025 94.2146 24.0913C94.5956 24.6714 94.7861 25.3121 94.7861 26.0135V27.9098C94.7861 28.6544 94.6389 29.2562 94.3445 29.7151C94.0587 30.1741 93.6604 30.5421 93.1495 30.8191C93.5738 30.9404 93.9635 31.0962 94.3185 31.2867C94.6821 31.4772 94.9895 31.711 95.2406 31.9881C95.5004 32.2565 95.6996 32.5725 95.8381 32.9362C95.9853 33.2912 96.0589 33.7025 96.0589 34.1701V36.7158C96.0589 37.4171 95.8035 38.0622 95.2926 38.651C94.7817 39.2311 94.0847 39.7334 93.2015 40.1576C92.3183 40.5819 91.2879 40.911 90.1103 41.1447C88.9327 41.3785 87.6772 41.4954 86.3437 41.4954C85.5991 41.4954 84.8371 41.4651 84.0578 41.4045C83.2785 41.3526 82.5209 41.279 81.7849 41.1837C81.0575 41.0885 80.3735 40.9802 79.7328 40.859C79.092 40.7378 78.5422 40.6122 78.0833 40.4823V22.2469C78.5422 22.1171 79.092 21.9958 79.7328 21.8833C80.3735 21.762 81.0575 21.6581 81.7849 21.5716C82.5209 21.4763 83.2785 21.4027 84.0578 21.3508C84.8371 21.2901 85.5991 21.2598 86.3437 21.2598ZM86.2398 32.6115C85.7723 32.6115 85.3047 32.6158 84.8371 32.6245C84.3695 32.6245 83.9149 32.6375 83.4733 32.6635C83.0404 32.6808 82.6248 32.7111 82.2265 32.7544C81.8282 32.7977 81.4688 32.854 81.1485 32.9232V37.8587C81.3216 37.9193 81.5424 37.9886 81.8109 38.0665C82.0879 38.1445 82.4343 38.2181 82.8499 38.2873C83.2655 38.3566 83.7634 38.4172 84.3436 38.4692C84.9237 38.5125 85.6077 38.5341 86.3957 38.5341C87.3655 38.5341 88.2357 38.4562 89.0063 38.3003C89.7856 38.1445 90.4393 37.9367 90.9675 37.6769C91.5044 37.4171 91.9157 37.1184 92.2014 36.7807C92.4871 36.4344 92.63 36.075 92.63 35.7027V34.5857C92.63 34.1787 92.4482 33.8454 92.0845 33.5856C91.7208 33.3259 91.2403 33.1267 90.6428 32.9882C90.0454 32.841 89.3613 32.7414 88.5907 32.6894C87.8287 32.6375 87.0451 32.6115 86.2398 32.6115ZM81.1485 29.3904C81.6853 29.4943 82.2958 29.5636 82.9798 29.5982C83.6725 29.6329 84.4561 29.6502 85.3307 29.6502C86.084 29.6502 86.833 29.6242 87.5776 29.5723C88.3223 29.5117 88.9933 29.4164 89.5908 29.2865C90.1882 29.148 90.6731 28.9662 91.0455 28.741C91.4178 28.5072 91.6083 28.2128 91.6169 27.8578V27.0266C91.6169 26.6543 91.526 26.2993 91.3442 25.9616C91.171 25.6152 90.8766 25.3121 90.461 25.0524C90.054 24.7926 89.5172 24.5848 88.8505 24.429C88.1837 24.2731 87.3655 24.1952 86.3957 24.1952C85.6077 24.1952 84.9237 24.2211 84.3436 24.2731C83.7634 24.3164 83.2655 24.3727 82.8499 24.4419C82.4343 24.5112 82.0879 24.5848 81.8109 24.6627C81.5424 24.7407 81.3216 24.8099 81.1485 24.8706V29.3904ZM106.211 29.6301C106.557 29.6301 106.975 29.647 107.463 29.681C107.952 29.7149 108.458 29.776 108.98 29.8642C109.51 29.9457 110.032 30.0644 110.548 30.2205C111.064 30.3698 111.525 30.5633 111.932 30.8008C112.346 31.0384 112.679 31.3268 112.93 31.6661C113.188 31.9987 113.317 32.3923 113.317 32.8471V36.288H101.65V38.8942C102.472 39.0096 103.262 39.091 104.022 39.1385C104.782 39.1792 105.512 39.1996 106.211 39.1996C107.277 39.1996 108.24 39.1589 109.102 39.0774C109.971 38.996 110.721 38.9044 111.352 38.8026C112.078 38.6872 112.733 38.5548 113.317 38.4055V40.6656C112.027 40.8692 110.782 41.0151 109.581 41.1033C108.386 41.1915 107.263 41.2357 106.211 41.2357C105.152 41.2357 104.192 41.2085 103.33 41.1542C102.468 41.0931 101.728 41.0253 101.111 40.9506C100.391 40.8692 99.7432 40.7741 99.1663 40.6656V32.8471C99.1663 32.3923 99.2783 31.9987 99.5022 31.6661C99.7262 31.3268 100.025 31.0384 100.398 30.8008C100.771 30.5633 101.199 30.3698 101.681 30.2205C102.169 30.0644 102.675 29.9457 103.198 29.8642C103.72 29.776 104.239 29.7149 104.755 29.681C105.278 29.647 105.763 29.6301 106.211 29.6301ZM101.65 34.6592H110.792V33.4782C110.792 33.2 110.724 32.9624 110.589 32.7656C110.453 32.562 110.27 32.3923 110.039 32.2566C109.815 32.1209 109.55 32.0123 109.245 31.9308C108.946 31.8426 108.634 31.7781 108.308 31.7374C107.982 31.6899 107.653 31.6594 107.321 31.6458C106.995 31.6322 106.686 31.6254 106.394 31.6254C106.089 31.6254 105.76 31.6322 105.407 31.6458C105.061 31.6594 104.711 31.6899 104.358 31.7374C104.005 31.7849 103.666 31.8528 103.34 31.941C103.014 32.0225 102.726 32.1344 102.475 32.277C102.224 32.4127 102.024 32.5824 101.874 32.786C101.725 32.9828 101.65 33.2203 101.65 33.4986V34.6592ZM125.472 29.6301C125.472 30.3359 125.449 31.0723 125.401 31.8392C125.354 32.5993 125.262 33.3832 125.126 34.1909H122.663C122.724 33.9601 122.781 33.709 122.836 33.4375C122.876 33.2068 122.914 32.9387 122.948 32.6333C122.988 32.3211 123.009 31.9919 123.009 31.6458C122.411 31.6594 121.916 31.717 121.522 31.8188C121.135 31.9139 120.813 32.0292 120.555 32.165C120.297 32.2939 120.087 32.4263 119.924 32.562C119.761 32.6977 119.615 32.8063 119.486 32.8878V41.2357H116.88V32.8267C116.853 32.6095 116.788 32.4263 116.687 32.277C116.592 32.1276 116.49 32.0055 116.381 31.9105C116.259 31.7951 116.12 31.7001 115.964 31.6254L117.043 29.6301C117.294 29.7183 117.542 29.8371 117.786 29.9864C117.997 30.1153 118.217 30.2816 118.448 30.4852C118.685 30.682 118.896 30.9264 119.079 31.2182C119.425 30.9807 119.744 30.7805 120.036 30.6176C120.328 30.4479 120.609 30.3054 120.881 30.19C121.159 30.0746 121.444 29.9864 121.736 29.9253C122.035 29.8574 122.36 29.8031 122.713 29.7624C123.073 29.7217 123.474 29.6945 123.915 29.681C124.363 29.6606 124.882 29.6436 125.472 29.6301Z" fill="#111212"/>
<path d="M43.1975 21.4936C44.5396 21.4936 45.951 21.5412 47.4316 21.6365C48.9123 21.7317 50.4709 21.9179 52.1074 22.195V25.494C51.5272 25.3295 50.8648 25.1736 50.1202 25.0264C49.4794 24.9052 48.7088 24.7883 47.8083 24.6757C46.9078 24.5632 45.8904 24.4896 44.7561 24.4549V41.2616H41.6649V24.4549C40.5306 24.4896 39.5132 24.5632 38.6126 24.6757C37.7121 24.7883 36.9415 24.9052 36.3007 25.0264C35.5561 25.1736 34.8937 25.3295 34.3136 25.494V22.195C35.9328 21.9179 37.4913 21.7317 38.9893 21.6365C40.4873 21.5412 41.89 21.4936 43.1975 21.4936ZM61.1728 29.4468C61.7429 29.4468 62.3096 29.474 62.8729 29.5283C63.443 29.5826 63.9893 29.6708 64.5119 29.793C65.0345 29.9151 65.5232 30.0678 65.9779 30.2511C66.4326 30.4343 66.8262 30.6549 67.1588 30.9128C67.4981 31.1707 67.7628 31.4693 67.9529 31.8087C68.1429 32.1412 68.2379 32.5145 68.2379 32.9285V38.2019C68.2379 38.5684 68.1429 38.9044 67.9529 39.2098C67.7628 39.5152 67.4981 39.79 67.1588 40.0344C66.8262 40.2719 66.4326 40.4789 65.9779 40.6554C65.5232 40.8318 65.0345 40.9778 64.5119 41.0931C63.9893 41.2085 63.443 41.2933 62.8729 41.3476C62.3028 41.4087 61.7361 41.4393 61.1728 41.4393C60.6094 41.4393 60.0427 41.4087 59.4726 41.3476C58.9093 41.2933 58.3664 41.2085 57.8438 41.0931C57.3212 40.9778 56.8325 40.8318 56.3778 40.6554C55.9299 40.4789 55.5362 40.2719 55.1969 40.0344C54.8643 39.79 54.603 39.5186 54.413 39.22C54.223 38.9145 54.128 38.5752 54.128 38.2019V32.9285C54.128 32.5145 54.223 32.1412 54.413 31.8087C54.603 31.4693 54.8643 31.1707 55.1969 30.9128C55.5362 30.6549 55.9299 30.4343 56.3778 30.2511C56.8325 30.0678 57.3212 29.9151 57.8438 29.793C58.3664 29.6708 58.9093 29.5826 59.4726 29.5283C60.0427 29.474 60.6094 29.4468 61.1728 29.4468ZM56.7138 37.5504C56.7138 37.8626 56.8427 38.134 57.1006 38.3648C57.3653 38.5888 57.708 38.7788 58.1288 38.9349C58.5496 39.0842 59.0247 39.1962 59.5541 39.2709C60.0902 39.3455 60.6298 39.3828 61.1728 39.3828C61.7429 39.3828 62.2926 39.3421 62.822 39.2607C63.3581 39.1792 63.8332 39.0639 64.2472 38.9145C64.6612 38.7584 64.9904 38.5684 65.2347 38.3444C65.4858 38.1137 65.6114 37.849 65.6114 37.5504V33.3154C65.6114 33.0235 65.4858 32.7622 65.2347 32.5315C64.9904 32.2939 64.6612 32.0971 64.2472 31.941C63.8332 31.7781 63.3581 31.656 62.822 31.5745C62.2926 31.4863 61.7429 31.4422 61.1728 31.4422C60.6298 31.4422 60.0902 31.4829 59.5541 31.5643C59.0247 31.639 58.5496 31.7544 58.1288 31.9105C57.708 32.0666 57.3653 32.2634 57.1006 32.5009C56.8427 32.7317 56.7138 33.0032 56.7138 33.3154V37.5504ZM73.6538 41.2357H71.068V29.6301H73.6538V41.2357ZM72.3711 25.5987C72.8734 25.5987 73.2704 25.6835 73.5622 25.8532C73.8541 26.0161 74 26.2774 74 26.6371V27.1461C74 27.4718 73.8541 27.706 73.5622 27.8485C73.2704 27.991 72.8734 28.0623 72.3711 28.0623C71.8893 28.0623 71.499 27.991 71.2004 27.8485C70.9085 27.706 70.7626 27.4718 70.7626 27.1461V26.6371C70.7626 26.2774 70.9085 26.0161 71.2004 25.8532C71.499 25.6835 71.8893 25.5987 72.3711 25.5987Z" fill="#D2221E"/>
<path d="M86.3437 21.2598C87.6772 21.2598 88.8634 21.3767 89.9025 21.6105C90.9502 21.8443 91.8334 22.169 92.5521 22.5846C93.2794 23.0003 93.8336 23.5025 94.2146 24.0913C94.5956 24.6714 94.7861 25.3121 94.7861 26.0135V27.9098C94.7861 28.6544 94.6389 29.2562 94.3445 29.7151C94.0587 30.1741 93.6604 30.5421 93.1495 30.8191C93.5738 30.9404 93.9635 31.0962 94.3185 31.2867C94.6821 31.4772 94.9895 31.711 95.2406 31.9881C95.5004 32.2565 95.6996 32.5725 95.8381 32.9362C95.9853 33.2912 96.0589 33.7025 96.0589 34.1701V36.7158C96.0589 37.4171 95.8035 38.0622 95.2926 38.651C94.7817 39.2311 94.0847 39.7334 93.2015 40.1576C92.3183 40.5819 91.2879 40.911 90.1103 41.1447C88.9327 41.3785 87.6772 41.4954 86.3437 41.4954C85.5991 41.4954 84.8371 41.4651 84.0578 41.4045C83.2785 41.3526 82.5209 41.279 81.7849 41.1837C81.0575 41.0885 80.3735 40.9802 79.7328 40.859C79.092 40.7378 78.5422 40.6122 78.0833 40.4823V22.2469C78.5422 22.1171 79.092 21.9958 79.7328 21.8833C80.3735 21.762 81.0575 21.6581 81.7849 21.5716C82.5209 21.4763 83.2785 21.4027 84.0578 21.3508C84.8371 21.2901 85.5991 21.2598 86.3437 21.2598ZM86.2398 32.6115C85.7723 32.6115 85.3047 32.6158 84.8371 32.6245C84.3695 32.6245 83.9149 32.6375 83.4733 32.6635C83.0404 32.6808 82.6248 32.7111 82.2265 32.7544C81.8282 32.7977 81.4688 32.854 81.1485 32.9232V37.8587C81.3216 37.9193 81.5424 37.9886 81.8109 38.0665C82.0879 38.1445 82.4343 38.2181 82.8499 38.2873C83.2655 38.3566 83.7634 38.4172 84.3436 38.4692C84.9237 38.5125 85.6077 38.5341 86.3957 38.5341C87.3655 38.5341 88.2357 38.4562 89.0063 38.3003C89.7856 38.1445 90.4393 37.9367 90.9675 37.6769C91.5044 37.4171 91.9157 37.1184 92.2014 36.7807C92.4871 36.4344 92.63 36.075 92.63 35.7027V34.5857C92.63 34.1787 92.4482 33.8454 92.0845 33.5856C91.7208 33.3259 91.2403 33.1267 90.6428 32.9882C90.0454 32.841 89.3613 32.7414 88.5907 32.6894C87.8287 32.6375 87.0451 32.6115 86.2398 32.6115ZM81.1485 29.3904C81.6853 29.4943 82.2958 29.5636 82.9798 29.5982C83.6725 29.6329 84.4561 29.6502 85.3307 29.6502C86.084 29.6502 86.833 29.6242 87.5776 29.5723C88.3223 29.5117 88.9933 29.4164 89.5908 29.2865C90.1882 29.148 90.6731 28.9662 91.0455 28.741C91.4178 28.5072 91.6083 28.2128 91.6169 27.8578V27.0266C91.6169 26.6543 91.526 26.2993 91.3442 25.9616C91.171 25.6152 90.8766 25.3121 90.461 25.0524C90.054 24.7926 89.5172 24.5848 88.8505 24.429C88.1837 24.2731 87.3655 24.1952 86.3957 24.1952C85.6077 24.1952 84.9237 24.2211 84.3436 24.2731C83.7634 24.3164 83.2655 24.3727 82.8499 24.4419C82.4343 24.5112 82.0879 24.5848 81.8109 24.6627C81.5424 24.7407 81.3216 24.8099 81.1485 24.8706V29.3904ZM106.211 29.6301C106.557 29.6301 106.975 29.647 107.463 29.681C107.952 29.7149 108.458 29.776 108.98 29.8642C109.51 29.9457 110.032 30.0644 110.548 30.2205C111.064 30.3698 111.525 30.5633 111.932 30.8008C112.346 31.0384 112.679 31.3268 112.93 31.6661C113.188 31.9987 113.317 32.3923 113.317 32.8471V36.288H101.65V38.8942C102.472 39.0096 103.262 39.091 104.022 39.1385C104.782 39.1792 105.512 39.1996 106.211 39.1996C107.277 39.1996 108.24 39.1589 109.102 39.0774C109.971 38.996 110.721 38.9044 111.352 38.8026C112.078 38.6872 112.733 38.5548 113.317 38.4055V40.6656C112.027 40.8692 110.782 41.0151 109.581 41.1033C108.386 41.1915 107.263 41.2357 106.211 41.2357C105.152 41.2357 104.192 41.2085 103.33 41.1542C102.468 41.0931 101.728 41.0253 101.111 40.9506C100.391 40.8692 99.7432 40.7741 99.1663 40.6656V32.8471C99.1663 32.3923 99.2783 31.9987 99.5022 31.6661C99.7262 31.3268 100.025 31.0384 100.398 30.8008C100.771 30.5633 101.199 30.3698 101.681 30.2205C102.169 30.0644 102.675 29.9457 103.198 29.8642C103.72 29.776 104.239 29.7149 104.755 29.681C105.278 29.647 105.763 29.6301 106.211 29.6301ZM101.65 34.6592H110.792V33.4782C110.792 33.2 110.724 32.9624 110.589 32.7656C110.453 32.562 110.27 32.3923 110.039 32.2566C109.815 32.1209 109.55 32.0123 109.245 31.9308C108.946 31.8426 108.634 31.7781 108.308 31.7374C107.982 31.6899 107.653 31.6594 107.321 31.6458C106.995 31.6322 106.686 31.6254 106.394 31.6254C106.089 31.6254 105.76 31.6322 105.407 31.6458C105.061 31.6594 104.711 31.6899 104.358 31.7374C104.005 31.7849 103.666 31.8528 103.34 31.941C103.014 32.0225 102.726 32.1344 102.475 32.277C102.224 32.4127 102.024 32.5824 101.874 32.786C101.725 32.9828 101.65 33.2203 101.65 33.4986V34.6592ZM125.472 29.6301C125.472 30.3359 125.449 31.0723 125.401 31.8392C125.354 32.5993 125.262 33.3832 125.126 34.1909H122.663C122.724 33.9601 122.781 33.709 122.836 33.4375C122.876 33.2068 122.914 32.9387 122.948 32.6333C122.988 32.3211 123.009 31.9919 123.009 31.6458C122.411 31.6594 121.916 31.717 121.522 31.8188C121.135 31.9139 120.813 32.0292 120.555 32.165C120.297 32.2939 120.087 32.4263 119.924 32.562C119.761 32.6977 119.615 32.8063 119.486 32.8878V41.2357H116.88V32.8267C116.853 32.6095 116.788 32.4263 116.687 32.277C116.592 32.1276 116.49 32.0055 116.381 31.9105C116.259 31.7951 116.12 31.7001 115.964 31.6254L117.043 29.6301C117.294 29.7183 117.542 29.8371 117.786 29.9864C117.997 30.1153 118.217 30.2816 118.448 30.4852C118.685 30.682 118.896 30.9264 119.079 31.2182C119.425 30.9807 119.744 30.7805 120.036 30.6176C120.328 30.4479 120.609 30.3054 120.881 30.19C121.159 30.0746 121.444 29.9864 121.736 29.9253C122.035 29.8574 122.36 29.8031 122.713 29.7624C123.073 29.7217 123.474 29.6945 123.915 29.681C124.363 29.6606 124.882 29.6436 125.472 29.6301Z" fill="white"/>
<path fill-rule="evenodd" clip-rule="evenodd" d="M19.2421 1C-17.5937 25.0011 12.959 39.1804 12.165 39.9066C12.165 39.9066 22.004 43.2958 27.3895 42.8462C32.7751 42.3966 -16.6616 35.9641 19.2076 1H19.2421Z" fill="#D2221E" stroke="#FEFEFE" stroke-width="0.0204678"/>
<path d="M19.4478 13.1485C17.7243 12.092 14.9635 13.2175 13.2815 15.6622C11.5995 18.1069 11.6331 20.9451 13.3567 22.0016C15.0802 23.0581 17.841 21.9327 19.523 19.4879C21.205 17.0432 21.1714 14.205 19.4478 13.1485Z" fill="#D2221E" stroke="#FEFEFE" stroke-width="0.0204678"/>
<path fill-rule="evenodd" clip-rule="evenodd" d="M93.1911 16.1999C60.636 3.0581 29.9452 15.6465 29.9452 15.6465C29.9452 15.6465 25.9405 17.3411 24.1108 19.0703C22.2811 20.8341 16.792 24.5 18.8979 30.3446C20.8657 35.7742 27.1834 39.1288 32.707 41.1347C38.2652 43.1405 12.2004 32.9384 31.3261 20.1424C50.4518 7.31189 92.5006 14.7474 93.2256 16.2345L93.1911 16.1999Z" fill="white" stroke="#FEFEFE" stroke-width="0.0204678"/>
</svg>
